<svg id="Group_12" data-name="Group 12" xmlns="http://www.w3.org/2000/svg" width="76" height="76" viewBox="0 0 76 76">
  <g id="_7" data-name="7">
    <g id="Group_11" data-name="Group 11">
      <path id="Path_16" data-name="Path 16" d="M50.162,36.727l-9.787,9.79V21.375a2.375,2.375,0,0,0-4.75,0V46.517l-9.787-9.787a2.375,2.375,0,0,0-3.358,3.358L35.915,53.523A2.328,2.328,0,0,0,38,54.138a2.337,2.337,0,0,0,2.088-.615L53.525,40.088a2.377,2.377,0,0,0-3.363-3.361ZM38,0A38,38,0,1,0,76,38,38,38,0,0,0,38,0Zm0,71.25A33.25,33.25,0,1,1,71.25,38,33.25,33.25,0,0,1,38,71.25Z" fill="#050044"/>
    </g>
  </g>
</svg>
