<svg xmlns="http://www.w3.org/2000/svg" width="38" height="38" viewBox="0 0 38 38">
  <g id="_7" data-name="7" transform="translate(38) rotate(90)">
    <g id="Group_11" data-name="Group 11">
      <path id="Path_16" data-name="Path 16" d="M25.081,19.636l-4.894-4.895V27.313a1.188,1.188,0,0,1-2.375,0V14.742l-4.894,4.894a1.187,1.187,0,0,1-1.679-1.679l6.718-6.718A1.164,1.164,0,0,1,19,10.931a1.168,1.168,0,0,1,1.044.308l6.718,6.718a1.189,1.189,0,0,1-1.682,1.68ZM19,38A19,19,0,1,1,38,19,19,19,0,0,1,19,38ZM19,2.375A16.625,16.625,0,1,0,35.625,19,16.625,16.625,0,0,0,19,2.375Z" fill="#9e8446"/>
    </g>
  </g>
</svg>